<?xml version="1.0" standalone="no"?>
<!DOCTYPE svg PUBLIC "-//W3C//DTD SVG 20010904//EN"
 "http://www.w3.org/TR/2001/REC-SVG-20010904/DTD/svg10.dtd">
<svg version="1.0" xmlns="http://www.w3.org/2000/svg"
 width="958.000000pt" height="958.000000pt" viewBox="0 0 958.000000 958.000000"
 preserveAspectRatio="xMidYMid meet">
<metadata>
Created by potrace 1.11, written by Peter Selinger 2001-2013
</metadata>
<g transform="translate(0.000000,958.000000) scale(0.100000,-0.100000)"
fill="#000000" stroke="none">
<path d="M1120 7056 c0 -5 -3 -7 -6 -3 -8 8 -70 -18 -90 -38 -9 -8 -20 -15
-26 -15 -6 0 -9 -3 -6 -6 3 -3 -5 -17 -18 -31 -13 -14 -22 -28 -19 -31 3 -3 0
-11 -6 -18 -6 -8 -9 -21 -5 -29 3 -8 2 -15 -3 -15 -5 0 -9 -12 -9 -27 -1 -38
20 -123 30 -123 4 0 7 -3 6 -7 -8 -23 77 -95 127 -108 45 -12 115 -14 115 -3
0 5 5 6 10 3 12 -7 70 16 70 27 0 5 3 7 8 6 11 -4 52 35 52 49 0 7 5 13 11 13
5 0 8 4 5 9 -3 5 1 12 10 15 9 4 14 9 11 12 -3 3 1 17 9 32 9 19 10 30 2 39
-6 7 -6 13 -1 13 5 0 10 7 10 15 0 8 -3 15 -6 15 -3 0 -7 17 -8 37 -1 20 -8
40 -15 44 -7 5 -10 9 -6 9 18 0 -70 90 -88 90 -6 0 -17 7 -24 15 -7 8 -16 12
-21 9 -5 -3 -15 -2 -21 2 -18 12 -98 11 -98 0z m103 -25 c5 -1 6 -5 3 -10 -3
-4 6 -7 19 -5 14 1 25 -3 25 -9 0 -5 3 -7 6 -4 8 8 74 -63 74 -79 0 -7 5 -14
10 -16 15 -5 16 -134 2 -151 -7 -8 -9 -17 -5 -20 3 -4 -1 -7 -11 -7 -9 0 -14
-4 -11 -10 9 -15 -31 -54 -47 -44 -10 6 -9 3 1 -10 8 -9 10 -16 5 -15 -19 3
-33 -2 -48 -17 -15 -15 -22 -8 -17 19 1 5 -3 6 -8 2 -6 -3 -7 -13 -4 -22 5
-12 2 -15 -10 -10 -9 3 -19 2 -22 -4 -4 -5 -12 -6 -18 -2 -7 4 -21 8 -32 9
-49 3 -51 4 -35 14 9 6 10 10 3 10 -6 0 -15 -5 -18 -10 -4 -7 -14 -3 -25 10
-10 12 -22 22 -27 23 -4 1 -7 5 -6 10 2 4 -5 7 -14 7 -9 0 -14 3 -10 6 3 3 -3
15 -14 27 -10 11 -19 31 -19 43 0 13 -4 25 -9 28 -4 3 -6 18 -4 33 2 16 5 39
6 53 1 14 8 29 15 33 7 5 10 12 7 17 -3 5 5 16 17 24 12 9 19 16 14 16 -5 0 3
9 17 20 14 11 30 20 37 20 6 0 8 5 4 12 -4 6 -3 9 2 6 5 -3 18 -2 29 2 16 6
78 6 118 1z"/>
<path d="M1146 7023 c-4 -4 -19 -9 -34 -10 -15 -2 -33 -12 -40 -21 -7 -9 -16
-16 -20 -16 -4 1 -17 -9 -29 -22 -12 -13 -19 -24 -16 -24 4 0 2 -5 -5 -12 -7
-7 -12 -21 -12 -32 0 -11 -8 -28 -17 -38 -13 -15 -14 -19 -3 -16 8 2 14 -2 15
-9 0 -6 10 -23 22 -36 12 -14 18 -29 15 -33 -4 -5 2 -2 12 6 17 13 19 13 14 0
-3 -8 -9 -24 -13 -35 l-7 -20 12 20 c24 39 41 46 59 23 17 -20 18 -20 45 -3
14 10 29 15 32 12 3 -3 -4 -8 -15 -12 -12 -3 -19 -11 -15 -16 3 -6 21 2 42 17
19 15 33 23 29 18 -3 -6 -2 -16 4 -24 7 -13 9 -12 9 3 0 9 5 17 10 17 7 0 7
-7 0 -20 -6 -11 -15 -18 -21 -15 -5 4 -9 1 -9 -5 0 -6 -4 -9 -8 -6 -4 2 -13 2
-19 -2 -8 -5 -6 -15 8 -32 13 -17 17 -19 13 -6 -6 16 -4 17 14 7 20 -11 42 2
28 16 -3 4 -6 1 -6 -5 0 -6 -7 -9 -15 -6 -8 4 -15 10 -15 16 0 5 5 6 10 3 6
-3 10 -1 10 6 0 7 3 9 6 6 4 -3 16 -1 28 5 11 7 24 11 28 10 4 -1 4 6 1 15 -5
12 -3 14 7 8 8 -5 3 6 -10 25 -23 32 -24 33 -33 12 -11 -24 -22 -28 -32 -12
-4 6 -1 9 6 8 6 -2 14 3 17 11 3 8 0 11 -7 7 -7 -5 -8 -1 -4 10 4 11 8 13 11
6 2 -7 8 -10 13 -6 5 3 3 15 -6 27 -8 12 -15 26 -15 32 0 5 5 2 11 -7 5 -10
17 -15 27 -12 14 5 15 4 2 -5 -13 -9 -13 -12 -1 -23 11 -11 13 -11 6 1 -6 10
-4 12 4 7 9 -6 9 -11 -1 -24 -10 -12 -10 -14 0 -8 6 4 12 2 12 -3 0 -14 37
-14 45 -1 3 5 0 7 -9 4 -24 -9 -38 4 -26 26 8 15 7 18 -3 15 -8 -4 -13 3 -14
15 -1 13 2 18 10 13 7 -4 5 2 -3 12 -14 17 -13 18 3 12 11 -4 16 -3 12 3 -4 6
-17 8 -30 6 -17 -3 -22 -1 -18 10 3 8 9 11 14 8 5 -3 9 -1 9 4 0 6 -7 13 -16
16 -8 3 -13 2 -10 -2 3 -4 -4 -13 -14 -20 -14 -9 -19 -8 -24 3 -3 9 -12 12
-23 9 -15 -5 -15 -4 -3 4 9 7 18 8 26 1 8 -7 15 -6 20 2 5 8 3 9 -6 4 -10 -6
-12 -4 -7 7 4 12 0 15 -16 11 -22 -5 -22 -5 -2 11 20 17 20 17 -2 11 -22 -6
-29 3 -23 30 1 6 -2 7 -6 3 -4 -4 -12 -3 -19 2 -7 5 -15 7 -19 3z m101 -111
c11 8 12 7 7 -6 -8 -21 -30 -21 -39 2 -5 13 -4 14 6 5 9 -9 16 -10 26 -1z m34
-35 c-13 -13 -26 -3 -16 12 3 6 11 8 17 5 6 -4 6 -10 -1 -17z m-80 -14 c-12
-20 -14 -14 -5 12 4 9 9 14 11 11 3 -2 0 -13 -6 -23z m82 -110 c-3 -7 -14 -18
-24 -24 -15 -7 -17 -6 -13 6 4 8 10 15 15 15 5 0 8 3 8 8 -1 4 -1 14 0 22 1
13 3 13 10 1 5 -8 7 -20 4 -28z m-162 13 c5 3 9 0 9 -6 0 -15 -23 -7 -26 8 -1
7 0 8 3 2 2 -5 9 -8 14 -4z"/>
<path d="M1259 6973 c-12 -16 -12 -17 2 -6 9 7 20 9 24 5 5 -4 5 -1 1 6 -9 16
-11 15 -27 -5z"/>
<path d="M1330 6863 c5 -2 8 -9 5 -13 -3 -5 -1 -11 4 -14 5 -4 8 2 7 11 -2 9
-8 18 -15 19 -6 1 -7 0 -1 -3z"/>
<path d="M1084 6735 c8 -8 18 -15 22 -15 3 0 1 7 -6 15 -7 8 -17 15 -22 15 -5
0 -3 -7 6 -15z"/>
<path d="M1180 6730 c-16 -12 -29 -15 -36 -9 -7 6 -16 3 -25 -8 -9 -11 -10
-14 -1 -9 6 4 12 2 12 -3 0 -6 -4 -11 -10 -11 -5 0 -10 -4 -10 -9 0 -10 26 -9
36 2 4 4 14 1 23 -6 14 -11 15 -10 1 7 -13 16 -12 20 4 32 10 7 24 15 30 17 6
2 9 7 6 10 -3 3 -16 -3 -30 -13z m-36 -40 c-6 -6 -10 -3 -10 10 0 13 4 16 10
10 7 -7 7 -13 0 -20z"/>
<path d="M1055 6720 c-3 -5 -2 -10 4 -10 5 0 13 5 16 10 3 6 2 10 -4 10 -5 0
-13 -4 -16 -10z"/>
<path d="M1074 6698 c-4 -6 -3 -8 4 -4 5 3 13 0 15 -6 3 -8 6 -6 6 5 1 19 -14
23 -25 5z"/>
<path d="M1268 6703 c7 -3 16 -2 19 1 4 3 -2 6 -13 5 -11 0 -14 -3 -6 -6z"/>
<path d="M1150 6660 c0 -5 5 -10 11 -10 5 0 7 5 4 10 -3 6 -8 10 -11 10 -2 0
-4 -4 -4 -10z"/>
<path d="M6770 7038 c-106 -15 -275 -51 -287 -60 -7 -6 -13 -8 -13 -5 0 8
-177 -53 -285 -98 -87 -36 -325 -153 -335 -164 -3 -3 -18 -13 -35 -21 -16 -8
-32 -17 -35 -20 -10 -10 -90 -53 -230 -123 -178 -89 -249 -121 -367 -163 l-93
-34 -19 38 c-25 49 -98 147 -147 197 -88 91 -191 158 -299 195 -88 30 -100 32
-225 36 -140 4 -252 -22 -381 -86 -82 -41 -181 -105 -187 -122 -2 -4 -8 -8
-14 -8 -13 0 -152 -139 -203 -204 -65 -81 -123 -175 -183 -296 -53 -109 -59
-117 -119 -158 l-63 -43 -53 24 c-46 21 -80 33 -127 44 -29 6 -96 5 -140 -2
-124 -20 -257 -130 -322 -265 -57 -116 -77 -212 -74 -355 4 -167 20 -247 77
-373 26 -58 28 -76 15 -120 -3 -9 -8 -30 -11 -47 -2 -16 -7 -41 -10 -55 -21
-100 -32 -179 -51 -370 -8 -84 -8 -330 0 -395 57 -452 309 -766 760 -945 69
-27 224 -75 275 -85 13 -2 30 -6 39 -9 9 -3 33 -7 52 -10 19 -3 46 -8 60 -11
14 -3 45 -8 70 -11 25 -2 56 -7 69 -9 134 -24 578 -24 791 0 113 13 190 23
230 31 14 3 39 7 55 9 27 3 216 41 258 51 9 2 25 6 35 8 92 21 385 112 425
133 23 11 30 11 41 1 7 -7 11 -19 8 -27 -3 -9 0 -11 8 -6 9 5 11 4 6 -3 -19
-31 117 -225 247 -354 203 -201 367 -264 578 -223 46 9 94 18 106 20 12 2 26
5 30 8 5 3 28 8 53 12 25 4 48 9 52 12 5 2 21 6 36 9 58 10 182 58 206 81 81
75 -10 127 -440 252 -77 23 -82 28 -91 96 -5 42 8 76 78 205 24 42 29 64 26
93 -8 58 -18 64 -97 61 -63 -3 -71 -1 -84 19 -29 43 -9 167 26 167 5 0 39 19
76 43 37 23 76 47 87 54 111 67 161 98 165 103 3 3 41 28 85 55 44 27 174 109
288 182 114 73 210 133 212 133 6 0 209 129 236 151 l26 21 184 -128 c101 -71
190 -133 196 -139 7 -5 41 -32 76 -60 57 -45 76 -69 175 -235 115 -192 202
-355 202 -377 0 -14 29 -19 31 -5 3 15 7 49 13 117 4 39 9 79 11 90 8 34 15
78 21 130 4 28 8 53 10 56 7 12 19 164 18 240 0 100 -32 157 -139 247 -8 7
-38 24 -66 39 -28 14 -62 34 -75 45 -32 28 -67 114 -66 163 2 82 33 126 118
169 56 28 98 37 194 40 80 3 90 21 29 51 -56 26 -133 96 -153 139 -33 70 -13
169 46 223 41 39 116 65 197 69 93 6 138 27 168 80 12 21 25 44 30 49 5 6 18
26 29 45 10 19 21 37 24 40 3 3 41 52 85 110 75 99 273 307 360 377 33 28 36
32 15 27 -14 -2 -49 -9 -77 -15 -29 -5 -90 -21 -135 -35 -46 -14 -88 -27 -95
-28 -7 -1 -16 -5 -19 -9 -4 -4 -13 -7 -20 -7 -7 0 -25 -5 -41 -12 -15 -6 -30
-12 -33 -13 -49 -13 -303 -134 -308 -147 -2 -4 -8 -8 -13 -8 -13 0 -119 -71
-144 -95 -11 -12 -51 -45 -90 -75 -38 -30 -72 -57 -75 -60 -3 -3 -12 -9 -21
-15 -37 -23 -254 -169 -259 -174 -3 -3 -17 -12 -32 -20 -16 -8 -28 -18 -28
-23 0 -4 -5 -8 -11 -8 -23 0 -275 -183 -366 -267 -30 -26 -53 -40 -66 -37 -11
2 -54 6 -96 10 -72 5 -135 18 -226 44 -41 12 -288 131 -360 173 -22 13 -65 37
-95 54 -30 17 -104 58 -164 92 -60 33 -110 61 -112 61 -1 0 -66 38 -166 99
-16 9 -28 20 -28 24 0 17 146 155 202 191 84 55 85 58 41 100 -21 19 -49 57
-62 83 -12 26 -28 57 -34 68 -6 11 -16 30 -23 43 -19 38 -58 76 -107 107 -81
52 -124 168 -84 228 8 13 12 29 8 36 -12 18 -5 58 13 86 9 14 39 36 66 50 28
14 50 29 50 34 0 8 -21 17 -58 26 -26 6 -62 36 -62 50 0 9 16 31 35 49 35 35
71 46 161 51 53 3 82 13 120 39 48 32 151 124 213 190 109 115 132 136 181
161 28 14 50 30 50 36 0 12 -139 10 -230 -3z m-569 -665 c13 -16 12 -17 -3 -4
-10 7 -18 15 -18 17 0 8 8 3 21 -13z m-136 -82 c3 -5 2 -12 -3 -15 -5 -3 -9 1
-9 9 0 17 3 19 12 6z m85 -55 c0 -2 -8 -10 -17 -17 -16 -13 -17 -12 -4 4 13
16 21 21 21 13z m-60 -10 c0 -2 -7 -7 -16 -10 -8 -3 -12 -2 -9 4 6 10 25 14
25 6z m-63 -41 c0 -8 -4 -15 -9 -15 -10 0 -11 14 -1 23 9 10 10 9 10 -8z m37
-15 c-6 -6 -10 -3 -10 10 0 13 4 16 10 10 7 -7 7 -13 0 -20z m46 26 c0 -2 -8
-10 -17 -17 -16 -13 -17 -12 -4 4 13 16 21 21 21 13z m17 -13 c-4 -3 -3 -11 3
-17 6 -8 3 -12 -10 -12 -15 0 -16 4 -9 18 5 10 13 18 16 18 3 0 3 -3 0 -7z
m-40 -38 c0 -8 -4 -12 -9 -9 -5 3 -6 10 -3 15 9 13 12 11 12 -6z m-84 -10 c-3
-9 -8 -14 -10 -11 -3 3 -2 9 2 15 9 16 15 13 8 -4z m152 5 c-3 -5 -12 -10 -18
-10 -7 0 -6 4 3 10 19 12 23 12 15 0z m-75 -30 c6 -11 8 -20 6 -20 -3 0 -10 9
-16 20 -6 11 -8 20 -6 20 3 0 10 -9 16 -20z m34 -15 c-9 -14 -18 -25 -20 -25
-2 0 2 11 8 25 6 14 15 25 20 25 5 0 1 -11 -8 -25z m-207 -2 c0 -9 -4 -10 -14
-2 -7 6 -13 12 -13 14 0 1 6 2 13 2 8 0 14 -6 14 -14z m279 -10 c-1 -7 -6 -16
-11 -20 -4 -4 -5 -2 0 6 5 9 3 12 -6 9 -8 -3 -13 -14 -11 -24 2 -15 1 -16 -7
-4 -6 9 -6 18 0 26 7 8 6 14 -3 17 -7 2 -1 4 13 3 15 0 26 -6 25 -13z m-341
-2 c3 -5 2 -12 -3 -15 -5 -3 -9 1 -9 9 0 17 3 19 12 6z m36 -8 c13 -16 12 -17
-3 -4 -10 7 -18 15 -18 17 0 8 8 3 21 -13z m243 -7 c-3 -9 -10 -16 -15 -16 -5
0 -4 9 3 20 14 22 21 20 12 -4z m-94 -1 c0 -8 -4 -15 -10 -15 -5 0 -7 7 -4 15
4 8 8 15 10 15 2 0 4 -7 4 -15z m-92 -8 c8 -10 6 -13 -7 -13 -11 0 -17 6 -14
13 3 7 6 13 8 13 1 0 7 -6 13 -13z m135 -2 c-3 -9 -1 -15 5 -13 6 2 18 -6 27
-17 14 -17 16 -18 11 -2 -3 10 -2 16 3 12 5 -3 11 -2 14 2 2 5 2 1 -1 -7 -8
-26 -4 -53 10 -61 23 -15 32 -9 14 10 -18 19 -12 51 9 51 7 0 15 -7 19 -15 3
-8 11 -15 18 -15 9 0 9 3 1 11 -6 6 -9 18 -6 25 4 10 0 12 -13 8 -20 -8 -19
-6 8 14 14 12 16 10 14 -13 -2 -17 3 -29 15 -36 11 -5 19 -7 19 -4 0 3 9 1 21
-5 12 -7 18 -18 15 -26 -3 -8 -1 -14 4 -14 6 0 10 6 10 13 0 6 5 4 11 -5 5
-10 17 -18 26 -18 9 0 14 -3 11 -6 -4 -3 -9 -5 -13 -4 -3 0 -14 -7 -23 -18 -9
-10 -12 -11 -7 -3 7 11 7 13 -2 7 -9 -5 -11 -2 -7 8 3 9 1 16 -6 16 -6 0 -9
-4 -5 -9 3 -5 1 -12 -4 -16 -6 -3 -7 -13 -4 -23 6 -15 5 -15 -10 -3 -9 7 -15
17 -12 21 3 5 -1 11 -7 14 -7 3 -3 3 9 0 15 -3 21 -1 19 10 -3 20 -16 33 -16
17 0 -7 -6 -11 -12 -8 -7 2 -13 10 -13 18 0 8 -10 14 -25 14 -14 0 -25 -6 -25
-13 0 -18 -24 -30 -49 -25 -21 5 -21 5 -1 -11 19 -15 19 -16 1 -9 -13 4 -17 3
-12 -5 5 -8 2 -10 -9 -6 -10 4 -15 2 -13 -6 2 -7 -4 -15 -12 -17 -12 -4 -12
-3 -2 5 11 7 10 10 -3 16 -23 9 -25 8 -19 -9 6 -15 -5 -20 -35 -16 -7 2 -10
-2 -7 -7 3 -6 -3 -21 -15 -33 -11 -13 -18 -19 -15 -12 4 7 -1 11 -14 10 -20
-1 -29 -17 -9 -17 5 0 7 -5 3 -11 -4 -8 -9 -7 -15 2 -8 12 -13 6 -11 -12 1 -4
-9 -15 -21 -25 -16 -14 -18 -15 -9 -2 11 13 11 18 0 25 -13 8 -21 54 -9 50 3
-1 17 6 31 16 13 9 21 17 17 17 -5 0 -5 5 -2 10 4 6 11 7 17 4 6 -4 6 -10 -1
-17 -16 -16 -13 -31 3 -18 11 10 17 8 25 -6 17 -29 13 -5 -5 30 -9 18 -13 29
-9 25 4 -4 15 2 24 14 15 17 21 19 39 9 29 -15 31 -14 27 14 -1 14 2 28 6 31
5 3 9 10 9 16 0 6 -9 3 -19 -6 -12 -11 -17 -25 -14 -34 5 -13 3 -14 -6 -6 -10
9 -10 16 0 33 21 33 38 33 54 1 9 -17 20 -30 26 -30 6 0 0 18 -12 39 -12 22
-27 39 -32 38 -6 -1 -13 6 -15 16 -2 9 1 17 7 17 6 0 8 -7 4 -15z m-248 -5 c3
-6 -1 -7 -9 -4 -18 7 -21 14 -7 14 6 0 13 -4 16 -10z m221 -9 c-4 -5 -1 -11 6
-13 7 -3 5 -7 -6 -11 -10 -4 -15 -3 -11 3 3 6 0 10 -7 10 -9 0 -9 3 2 10 19
12 23 12 16 1z m-171 -21 c16 -17 16 -20 3 -15 -9 4 -19 13 -22 21 -7 19 -2
18 19 -6z m-245 -14 c0 -2 -7 -7 -16 -10 -8 -3 -12 -2 -9 4 6 10 25 14 25 6z
m142 -3 c-6 -3 -9 -10 -5 -16 4 -7 -1 -6 -10 2 -21 17 -21 17 6 18 12 0 16 -1
9 -4z m75 0 c-4 -3 -2 -12 4 -20 9 -9 8 -13 0 -13 -6 0 -11 2 -11 4 0 2 -3 11
-6 20 -4 10 -1 16 7 16 7 0 9 -3 6 -7z m178 -3 c3 -5 2 -10 -4 -10 -5 0 -13 5
-16 10 -3 6 -2 10 4 10 5 0 13 -4 16 -10z m-219 -35 c1 -8 -2 -15 -6 -15 -5 0
-8 9 -7 20 1 21 10 18 13 -5z m174 15 c-35 -24 -54 -31 -30 -11 14 11 30 21
35 21 6 0 3 -5 -5 -10z m-145 -19 c3 -5 2 -12 -3 -15 -5 -3 -9 1 -9 9 0 17 3
19 12 6z m-168 -20 c-1 -13 -6 -17 -22 -12 -17 4 -18 6 -2 9 9 2 17 8 17 13 0
5 2 9 4 9 3 0 4 -8 3 -19z m70 13 c-3 -3 -12 -4 -19 -1 -8 3 -5 6 6 6 11 1 17
-2 13 -5z m477 0 c9 -3 14 -10 11 -14 -3 -5 5 -20 17 -35 l23 -26 37 27 c36
26 38 26 63 10 14 -9 23 -22 19 -28 -4 -6 1 -17 11 -25 11 -7 15 -13 11 -13
-5 0 -2 -7 5 -16 12 -15 11 -16 -9 -10 -14 5 -22 3 -22 -4 0 -6 -5 -8 -12 -4
-9 5 -9 2 1 -9 7 -9 21 -16 30 -16 13 1 13 2 -2 6 -9 2 -15 8 -12 13 11 18 44
-4 60 -41 10 -21 26 -46 36 -55 10 -9 16 -20 14 -24 -3 -4 5 -10 18 -14 22 -6
21 -6 -7 -25 -17 -11 -34 -17 -39 -14 -6 3 -7 1 -3 -5 3 -5 -9 -19 -27 -31
-18 -11 -43 -31 -56 -45 -14 -14 -30 -26 -38 -26 -7 0 -12 -6 -10 -12 1 -7 -6
-12 -15 -12 -9 1 -14 -4 -12 -10 6 -15 -44 -68 -57 -61 -5 4 -7 10 -4 15 3 4
-4 6 -15 3 -11 -3 -20 0 -20 6 0 6 -7 11 -16 11 -8 0 -12 5 -9 10 4 6 11 8 16
5 5 -3 6 1 3 9 -6 15 6 21 29 17 5 -1 6 2 3 7 -7 11 45 58 59 54 5 -2 7 0 3 4
-4 4 -3 13 3 21 10 11 15 11 28 1 14 -11 14 -11 3 4 -13 17 -8 27 36 73 6 8
12 18 12 24 0 6 5 11 10 11 7 0 7 6 1 19 -6 10 -8 21 -4 24 3 4 -2 9 -11 13
-9 3 -13 10 -10 15 3 5 -3 6 -12 2 -11 -4 -13 -8 -6 -11 7 -2 10 -8 7 -13 -4
-5 2 -6 12 -2 16 5 16 4 -2 -14 -11 -12 -31 -35 -45 -53 -64 -83 -99 -115
-112 -102 -6 6 -8 12 -4 12 5 0 3 7 -4 15 -7 8 -17 15 -23 15 -6 0 -2 -7 9
-15 10 -8 15 -15 10 -15 -5 0 -1 -9 9 -20 17 -19 12 -26 -18 -21 -5 1 -6 -3
-2 -8 7 -12 -29 -33 -39 -23 -4 3 -4 -1 0 -11 9 -23 3 -22 -39 12 -36 28 -36
29 -17 46 11 10 20 16 20 13 0 -4 15 9 34 28 19 19 42 34 52 34 9 0 14 3 11 7
-9 8 44 44 55 37 4 -3 8 0 8 5 0 14 -6 14 -32 0 -18 -10 -19 -8 -13 13 7 19 6
21 -7 11 -12 -11 -15 -8 -15 16 0 22 4 28 16 24 10 -4 9 0 -4 10 -22 17 -37
14 -29 -7 7 -18 -24 -42 -37 -29 -6 6 8 26 43 58 l52 47 18 -21 c9 -12 15 -28
12 -35 -7 -17 22 -41 31 -26 4 6 2 17 -5 25 -6 7 -13 24 -15 37 -4 18 0 24 15
25 22 2 27 -13 8 -20 -10 -3 -10 -10 1 -30 8 -15 17 -25 20 -22 2 3 -1 11 -7
17 -20 20 -13 32 8 13 11 -10 20 -13 20 -8 0 6 -6 13 -14 16 -16 6 -13 51 5
73 9 12 10 17 0 27 -10 9 -11 9 -8 -3 2 -8 2 -12 0 -7 -3 4 -9 7 -15 7 -7 0
-7 -4 -1 -12 7 -9 4 -19 -9 -30 -15 -15 -18 -15 -18 -3 0 8 -4 15 -10 15 -5 0
-8 -6 -6 -12 1 -7 1 -10 -1 -5 -3 4 -11 7 -19 7 -9 0 -12 5 -9 10 3 6 0 10 -8
10 -8 0 -38 -22 -68 -50 -30 -27 -57 -50 -61 -50 -5 0 -7 -5 -5 -12 1 -7 -4
-12 -11 -13 -7 0 -16 -5 -20 -12 -5 -8 -12 -8 -26 3 -17 12 -18 14 -3 14 9 0
17 4 17 8 0 4 -9 8 -19 8 -13 0 -18 -6 -16 -17 3 -12 -2 -17 -16 -16 -10 1
-19 5 -19 10 0 4 -5 5 -11 1 -8 -4 -5 -10 7 -18 24 -14 37 -14 46 -2 4 6 9 8
12 5 3 -3 -7 -20 -22 -37 -16 -18 -32 -29 -35 -25 -10 10 -8 25 2 18 5 -3 13
0 17 7 4 7 4 10 -1 6 -4 -4 -14 0 -22 10 -8 9 -12 12 -9 5 4 -8 -1 -10 -18 -7
-14 2 -27 0 -31 -6 -3 -6 1 -7 10 -4 11 5 14 2 9 -10 -5 -13 -9 -14 -20 -5
-10 8 -14 8 -14 0 0 -6 5 -11 10 -11 6 0 10 -5 10 -11 0 -5 -6 -7 -12 -3 -7 4
-9 3 -5 -1 12 -14 36 -14 31 -1 -3 7 4 12 16 12 24 0 25 -3 6 -22 -20 -20 -42
-18 -59 6 -8 11 -17 17 -21 13 -4 -4 -4 0 -1 9 4 9 13 19 21 22 9 3 12 11 8
18 -4 7 -4 10 0 6 4 -3 37 14 73 39 36 24 68 41 72 38 6 -6 7 -10 10 -36 0 -5
6 -7 12 -3 8 4 7 9 -2 16 -11 7 -10 8 4 4 10 -3 15 -2 12 3 -3 5 -1 12 5 16 6
4 8 11 4 16 -3 5 -10 7 -15 3 -5 -3 -7 -10 -4 -15 4 -5 1 -9 -4 -9 -29 0 -4
38 29 44 16 3 99 73 100 84 0 7 -4 10 -10 7 -5 -3 -10 -1 -10 4 0 13 3 13 24
5z m-430 -12 c2 -4 0 -14 -6 -22 -8 -12 -9 -12 -4 2 3 10 -1 18 -12 21 -16 4
-16 5 0 6 9 0 19 -3 22 -7z m131 -12 c-3 -5 -12 -10 -18 -10 -7 0 -6 4 3 10
19 12 23 12 15 0z m-281 -27 c11 -13 16 -23 13 -23 -10 0 -37 31 -37 42 0 6 1
9 3 7 1 -2 11 -14 21 -26z m72 18 c-3 -5 1 -12 10 -15 9 -4 14 -9 11 -13 -9
-8 -38 17 -31 28 3 5 7 9 10 9 3 0 3 -4 0 -9z m46 2 c-6 -2 -9 -10 -6 -15 4
-7 2 -8 -5 -4 -13 9 -5 26 12 25 9 0 8 -2 -1 -6z m133 -23 c-3 -5 -13 -6 -21
-3 -12 4 -13 8 -3 14 15 9 32 2 24 -11z m-295 6 c0 -3 -4 -8 -10 -11 -5 -3
-10 -1 -10 4 0 6 5 11 10 11 6 0 10 -2 10 -4z m100 -21 c5 3 11 1 14 -4 4 -5
-2 -8 -11 -7 -10 2 -18 9 -19 17 -1 9 0 10 3 1 3 -7 8 -10 13 -7z m-80 -5 c0
-5 -2 -10 -4 -10 -3 0 -8 5 -11 10 -3 6 -1 10 4 10 6 0 11 -4 11 -10z m244 2
c-5 -4 -12 -11 -15 -15 -3 -5 -9 -2 -12 5 -3 9 3 14 15 15 11 1 16 -1 12 -5z
m-46 -40 c-10 -11 -13 -10 -21 3 -5 9 -6 19 -3 22 3 4 6 1 6 -5 0 -7 4 -12 10
-12 5 0 7 8 4 18 -5 14 -4 14 4 2 8 -10 7 -18 0 -28z m-148 18 c-8 -5 -19 -10
-25 -10 -5 0 -3 5 5 10 8 5 20 10 25 10 6 0 3 -5 -5 -10z m610 -20 c6 -11 9
-20 7 -20 -2 0 -12 9 -22 20 -10 11 -13 20 -7 20 6 0 16 -9 22 -20z m-510 0
c1 11 3 11 11 -3 6 -10 8 -21 5 -24 -3 -4 -6 -1 -6 6 0 7 -5 9 -10 6 -6 -4 -8
-10 -6 -14 3 -4 -6 -7 -20 -6 -13 0 -23 5 -22 10 2 6 11 9 20 8 12 -2 16 2 12
15 -5 14 -4 15 5 2 9 -13 11 -13 11 0z m3505 0 c-3 -5 -12 -10 -19 -10 -7 0
-18 -10 -24 -22 -6 -13 -11 -17 -11 -10 -1 6 -6 12 -12 12 -6 0 -8 -9 -4 -22
5 -20 4 -21 -5 -5 -6 9 -8 22 -5 27 3 6 2 10 -4 10 -5 0 -11 -6 -14 -12 -3
-10 -8 -10 -18 1 -8 8 -9 11 -2 7 6 -3 15 -2 18 4 4 6 16 8 27 4 15 -4 18 -3
13 6 -5 8 -4 11 3 7 5 -4 21 -3 34 2 30 13 30 13 23 1z m-3380 -20 c-3 -5 -1
-11 4 -15 16 -9 0 -37 -17 -30 -12 4 -13 3 -2 -10 10 -12 10 -15 -4 -15 -10 0
-15 -4 -12 -8 2 -4 0 -14 -5 -22 -8 -12 -12 -12 -16 -2 -2 6 -9 10 -14 7 -5
-4 -6 2 -2 11 4 12 3 15 -5 10 -8 -5 -10 -1 -5 11 6 16 5 16 -10 4 -9 -7 -17
-9 -17 -5 0 11 42 39 53 36 4 -1 10 5 13 13 3 8 10 12 15 9 5 -3 9 2 9 11 0 9
5 13 10 10 6 -4 8 -10 5 -15z m3258 -21 c23 -13 37 -28 37 -43 0 -4 -9 2 -21
15 -14 17 -19 19 -15 7 3 -11 -2 -19 -15 -23 -10 -4 -17 -11 -14 -16 4 -5 1
-9 -5 -9 -6 0 -9 8 -6 18 3 9 1 24 -4 32 -9 14 -11 12 -14 -20 0 -8 -6 -14
-13 -13 -6 2 -15 -7 -18 -18 -5 -16 -10 -18 -21 -8 -15 13 -17 9 -8 -15 3 -9
10 -13 15 -10 5 3 9 0 9 -5 0 -13 -3 -13 -24 -5 -9 3 -13 10 -10 15 3 5 1 9
-5 9 -5 0 -18 3 -28 6 -16 5 -16 4 2 -12 15 -12 16 -15 4 -11 -20 7 -39 -10
-39 -34 0 -45 -41 -26 -42 19 -1 26 -4 30 -15 20 -10 -8 -11 -14 -3 -22 5 -5
10 -14 10 -19 0 -5 -9 1 -20 14 -11 14 -19 18 -20 11 0 -7 11 -24 24 -37 24
-24 24 -24 4 -31 -11 -3 -25 -1 -32 6 -8 10 -5 11 14 5 24 -7 24 -6 8 11 -14
14 -20 15 -32 4 -9 -7 -16 -18 -16 -26 0 -7 -5 -16 -11 -20 -8 -4 -9 1 -4 16
6 20 5 21 -15 10 -15 -8 -20 -8 -16 -1 4 6 2 11 -3 11 -6 0 -11 -6 -11 -14 0
-8 -13 -24 -29 -35 -26 -19 -31 -20 -44 -6 -23 22 -44 19 -24 -3 10 -10 17
-23 17 -28 0 -5 -5 -1 -11 9 -7 11 -17 16 -29 12 -33 -10 -32 23 1 41 20 10
28 11 24 4 -5 -8 -3 -11 6 -8 8 3 14 9 14 14 1 21 18 34 37 28 15 -4 18 -3 13
6 -6 9 -3 9 13 1 31 -16 37 -13 17 9 -17 19 -16 19 9 14 18 -3 25 0 24 8 -2 7
4 13 13 13 9 0 24 6 33 14 9 7 16 10 16 6 0 -4 6 -2 13 4 8 6 17 8 20 4 4 -3
7 -1 7 6 0 7 5 9 10 6 6 -3 10 0 10 7 0 9 3 9 10 -2 9 -14 14 -7 11 13 -1 5 3
6 9 2 6 -4 18 -1 26 6 11 9 18 9 26 1 19 -19 32 -14 17 6 -11 14 -10 13 9 -2
23 -20 31 -10 10 13 -9 10 -9 12 -1 7 6 -3 14 -2 18 4 4 6 10 8 14 6 4 -3 13
-1 21 5 19 11 17 11 43 -2z m-2843 -30 c0 -6 -4 -7 -10 -4 -5 3 -10 11 -10 16
0 6 5 7 10 4 6 -3 10 -11 10 -16z m-107 -47 c-3 -12 -16 -25 -29 -28 -13 -3
-22 -10 -19 -14 3 -5 0 -12 -6 -16 -8 -5 -9 -3 -4 7 4 8 -6 -1 -24 -20 -29
-32 -32 -33 -44 -17 -12 17 -14 17 -28 -1 -13 -16 -12 -17 3 -5 14 11 17 10
20 -5 5 -25 -22 -44 -45 -32 -9 6 -15 14 -12 19 4 6 -1 7 -11 3 -12 -4 -15 -3
-10 5 4 7 14 12 22 12 8 0 13 6 12 13 -2 6 2 11 9 10 6 -2 15 6 18 17 4 11 11
18 16 15 5 -4 9 -1 9 6 0 7 8 5 20 -6 11 -10 20 -13 20 -7 0 7 -4 12 -10 12
-5 0 -10 7 -10 17 0 15 1 15 18 0 13 -12 21 -13 32 -6 13 9 12 10 -2 5 -19 -6
-33 8 -23 24 8 13 56 -10 48 -24 -3 -6 -2 -7 3 -3 5 5 9 12 9 15 0 11 17 34
21 30 2 -2 1 -14 -3 -26z m2959 21 c-6 -2 -9 -10 -6 -15 4 -7 2 -8 -5 -4 -13
9 -5 26 12 25 9 0 8 -2 -1 -6z m-51 -34 c9 -17 8 -20 -2 -14 -9 6 -11 3 -6 -9
4 -10 3 -15 -4 -11 -5 4 -7 15 -4 26 4 11 2 19 -4 19 -6 0 -11 -5 -11 -12 0
-6 -3 -9 -6 -5 -8 7 4 27 16 27 5 0 14 -10 21 -21z m-3135 -16 c-10 -10 -19 5
-10 18 6 11 8 11 12 0 2 -7 1 -15 -2 -18z m3016 -35 c-3 -12 -1 -19 4 -15 6 3
16 1 24 -4 11 -7 8 -8 -10 -6 -17 3 -26 11 -28 25 -2 12 1 22 6 22 6 0 8 -10
4 -22z m39 8 c5 3 9 0 9 -6 0 -15 -23 -7 -26 8 -1 7 0 8 3 2 2 -5 9 -8 14 -4z
m53 -8 c-3 -4 -9 -8 -15 -8 -5 0 -9 4 -9 8 0 5 7 9 15 9 8 0 12 -4 9 -9z m-99
-39 c11 -16 1 -19 -13 -3 -7 8 -8 14 -3 14 5 0 13 -5 16 -11z m-53 -12 c-17
-10 -20 -15 -10 -25 9 -9 9 -15 -1 -24 -11 -11 -12 -10 -7 0 4 7 3 19 -4 27
-9 10 -7 16 7 24 10 6 23 10 28 10 6 0 0 -5 -13 -12z m-76 -27 c0 -16 -4 -30
-8 -30 -4 0 -6 10 -4 23 3 12 5 25 5 30 1 4 3 7 5 7 2 0 3 -13 2 -30z m157 5
c-7 -21 -12 -19 -10 4 0 11 5 18 9 15 4 -3 5 -11 1 -19z m-211 8 c-6 -2 -10
-9 -6 -14 3 -5 0 -9 -5 -9 -12 0 -14 13 -4 23 3 4 11 7 17 6 6 0 5 -3 -2 -6z
m93 -13 c3 -6 -1 -7 -9 -4 -18 7 -21 14 -7 14 6 0 13 -4 16 -10z m-269 -26
c-4 -11 1 -13 23 -9 20 3 28 1 28 -10 0 -10 -5 -11 -17 -5 -22 12 -64 -16 -56
-37 4 -8 1 -11 -5 -8 -6 4 -8 13 -5 21 6 16 -5 18 -22 4 -9 -7 -9 -7 -2 2 18
22 11 32 -10 13 -11 -10 -18 -21 -15 -24 2 -4 -1 -13 -6 -21 -8 -13 -10 -13
-19 0 -5 8 -9 20 -9 25 0 6 3 4 6 -2 8 -21 22 -15 18 7 -2 11 2 20 8 20 7 1
25 12 41 25 31 24 52 24 42 -1z m151 -20 c1 -20 -1 -24 -6 -15 -5 8 -7 20 -4
28 4 9 0 11 -13 6 -12 -4 -15 -3 -10 6 13 20 31 6 33 -25z m36 13 c3 -8 -1
-14 -8 -14 -7 0 -11 6 -8 14 3 7 6 13 8 13 2 0 5 -6 8 -13z m76 -11 c9 -11 9
-16 -1 -22 -7 -4 -10 -4 -6 1 4 4 3 14 -3 22 -6 7 -9 13 -6 13 2 0 10 -6 16
-14z m71 8 c0 -8 -19 -13 -24 -6 -3 5 1 9 9 9 8 0 15 -2 15 -3z m-101 -17 c8
-10 7 -14 -2 -14 -8 0 -14 6 -14 14 0 7 1 13 2 13 2 0 8 -6 14 -13z m-113 -25
c-13 -13 -18 -14 -28 -3 -7 7 -8 12 -3 11 23 -5 36 1 29 12 -5 7 -3 8 5 3 10
-6 9 -11 -3 -23z m-90 6 c4 -6 3 -8 -4 -4 -6 3 -15 -2 -21 -11 -9 -16 -10 -16
-11 -1 0 9 6 19 13 21 6 3 13 6 14 6 1 1 5 -4 9 -11z m160 -34 c1 -9 0 -13 -4
-10 -3 4 -7 14 -8 22 -1 9 0 13 4 10 3 -4 7 -14 8 -22z m-301 -12 c16 -20 16
-22 2 -16 -9 3 -17 11 -17 16 0 6 -7 4 -16 -3 -15 -12 -14 -14 7 -20 22 -6 22
-7 3 -8 -12 -1 -28 7 -35 16 -8 9 -9 14 -3 10 6 -3 17 3 24 13 8 11 14 18 15
17 0 -1 9 -12 20 -25z m69 12 c3 -8 2 -12 -3 -9 -5 3 -12 1 -16 -5 -3 -5 -12
-10 -18 -10 -7 0 -4 6 5 14 10 7 15 16 11 19 -3 4 -2 7 4 7 6 0 14 -7 17 -16z
m353 1 c0 -8 -4 -12 -9 -9 -5 3 -6 10 -3 15 9 13 12 11 12 -6z m-173 -14 c14
-15 15 -21 4 -27 -7 -4 -10 -3 -5 1 4 5 0 17 -10 27 -9 10 -14 18 -11 18 3 0
13 -9 22 -19z m137 2 c13 -16 12 -17 -3 -4 -10 7 -18 15 -18 17 0 8 8 3 21
-13z m-446 -44 c0 -8 -7 -12 -15 -10 -8 2 -20 4 -27 4 -7 0 -10 4 -7 9 3 4 14
3 25 -2 11 -7 19 -7 19 -1 0 5 -5 12 -10 14 -6 3 -5 4 2 3 7 -2 13 -9 13 -17z
m320 -18 c-9 -8 -36 -10 -30 -2 2 4 11 8 20 8 8 0 13 -3 10 -6z m-235 -5 c0
-2 -8 -10 -17 -17 -16 -13 -17 -12 -4 4 13 16 21 21 21 13z m53 -11 c-3 -9 -8
-14 -10 -11 -3 3 -2 9 2 15 9 16 15 13 8 -4z m47 1 c0 -3 -4 -8 -10 -11 -5 -3
-10 -1 -10 4 0 6 5 11 10 11 6 0 10 -2 10 -4z m-223 -12 c-3 -3 -12 -4 -19 -1
-8 3 -5 6 6 6 11 1 17 -2 13 -5z m260 -26 c2 -17 0 -19 -7 -8 -5 8 -6 18 -4
22 8 12 10 10 11 -14z m-357 -8 c0 -5 -5 -10 -11 -10 -5 0 -7 5 -4 10 3 6 8
10 11 10 2 0 4 -4 4 -10z m37 -5 c0 -8 -4 -12 -9 -9 -5 3 -6 10 -3 15 9 13 12
11 12 -6z m80 -20 c0 -8 -4 -12 -9 -9 -5 3 -6 10 -3 15 9 13 12 11 12 -6z
m117 3 c-3 -4 -11 -5 -19 -1 -21 7 -19 12 4 10 11 0 18 -5 15 -9z m-219 -8 c3
-5 1 -10 -4 -10 -6 0 -11 5 -11 10 0 6 2 10 4 10 3 0 8 -4 11 -10z m-61 -39
c-2 -3 -12 3 -22 13 -16 17 -16 18 5 5 12 -7 20 -15 17 -18z m-40 3 c3 -8 2
-12 -4 -9 -6 3 -10 10 -10 16 0 14 7 11 14 -7z m241 6 c3 -5 1 -10 -4 -10 -6
0 -11 5 -11 10 0 6 2 10 4 10 3 0 8 -4 11 -10z m-121 -42 c-3 -4 -11 -5 -19
-1 -21 7 -19 12 4 10 11 0 18 -5 15 -9z m-151 -18 c-7 -7 -92 -7 -88 1 2 3 24
5 49 5 24 -1 42 -3 39 -6z m97 -15 c0 -7 -30 -13 -34 -7 -3 4 4 9 15 9 10 1
19 0 19 -2z m-75 -65 c10 -11 16 -20 13 -20 -3 0 -13 9 -23 20 -10 11 -16 20
-13 20 3 0 13 -9 23 -20z m-185 -14 c0 -3 -4 -8 -10 -11 -5 -3 -10 -1 -10 4 0
6 5 11 10 11 6 0 10 -2 10 -4z m-110 -82 c0 -8 -19 -13 -24 -6 -3 5 1 9 9 9 8
0 15 -2 15 -3z m-105 -64 c3 -6 -1 -7 -9 -4 -18 7 -21 14 -7 14 6 0 13 -4 16
-10z"/>
<path d="M6155 6010 c-4 -6 -3 -16 3 -22 6 -6 12 -6 17 2 4 6 3 16 -3 22 -6 6
-12 6 -17 -2z"/>
<path d="M6229 5986 c6 -7 7 -17 3 -22 -4 -4 0 -3 9 4 9 6 19 9 22 5 4 -3 7
-1 7 5 0 7 -3 12 -7 13 -5 0 -16 2 -26 4 -14 3 -16 0 -8 -9z"/>
<path d="M6077 5983 c-4 -6 -2 -15 4 -19 8 -4 7 -9 -2 -15 -11 -7 -11 -9 1 -9
13 0 13 -1 0 -10 -8 -5 -10 -10 -5 -10 14 0 30 13 33 28 1 6 -2 12 -7 12 -5 0
-11 8 -13 18 -2 12 -6 13 -11 5z"/>
<path d="M6009 5933 c-1 -5 -1 -11 0 -15 0 -5 -3 -8 -9 -8 -5 0 -10 -4 -10
-10 0 -18 17 -11 28 13 7 14 11 16 9 5 -1 -9 3 -17 8 -17 6 -1 10 5 10 12 1
19 -33 38 -36 20z"/>
<path d="M5915 5850 c-11 -13 -14 -20 -6 -20 7 0 10 -4 6 -9 -3 -5 0 -13 7
-17 7 -4 10 -4 6 1 -4 4 -3 14 3 22 6 7 8 13 3 13 -5 0 -3 4 5 9 8 5 9 11 3
15 -5 3 -17 -3 -27 -14z"/>
<path d="M6162 5881 c-27 -22 -54 -37 -58 -33 -5 4 -2 -1 5 -10 7 -10 9 -23 5
-30 -4 -7 10 4 32 24 21 20 50 45 63 56 15 11 20 21 14 25 -6 4 -34 -11 -61
-32z m38 8 c-48 -38 -80 -60 -80 -55 0 6 91 76 99 76 3 0 -5 -9 -19 -21z"/>
<path d="M6349 5878 c-1 -2 -2 -15 -3 -29 -2 -24 0 -26 20 -17 19 9 21 14 11
29 -10 16 -24 24 -28 17z m21 -29 c0 -6 -4 -7 -10 -4 -5 3 -10 11 -10 16 0 6
5 7 10 4 6 -3 10 -11 10 -16z"/>
<path d="M6228 5809 c-15 -9 -14 -12 11 -37 15 -15 31 -36 35 -46 3 -10 9 -16
13 -13 3 4 12 -1 20 -11 13 -15 13 -15 3 6 -6 12 -15 20 -21 17 -5 -4 -9 0 -9
8 0 8 -7 20 -15 27 -9 7 -13 21 -10 31 7 22 -5 30 -27 18z m22 -9 c0 -5 -5
-10 -11 -10 -5 0 -7 5 -4 10 3 6 8 10 11 10 2 0 4 -4 4 -10z"/>
<path d="M6035 5800 c-3 -5 -1 -10 4 -10 6 0 11 5 11 10 0 6 -2 10 -4 10 -3 0
-8 -4 -11 -10z"/>
<path d="M6415 5780 c-3 -5 -1 -10 4 -10 6 0 11 5 11 10 0 6 -2 10 -4 10 -3 0
-8 -4 -11 -10z"/>
<path d="M6332 5740 c0 -14 2 -19 5 -12 2 6 2 18 0 25 -3 6 -5 1 -5 -13z"/>
<path d="M6436 5747 c3 -10 9 -15 12 -12 3 3 0 11 -7 18 -10 9 -11 8 -5 -6z"/>
<path d="M5950 5739 c0 -5 5 -7 10 -4 6 3 10 8 10 11 0 2 -4 4 -10 4 -5 0 -10
-5 -10 -11z"/>
<path d="M6232 5736 c7 -8 15 -12 17 -11 5 6 -10 25 -20 25 -5 0 -4 -6 3 -14z"/>
<path d="M6270 5669 c-7 -11 -10 -23 -7 -25 2 -2 9 7 15 21 14 30 7 33 -8 4z"/>
<path d="M6234 5662 c3 -5 0 -13 -6 -15 -9 -4 -10 -6 -1 -6 17 -1 25 16 12 25
-7 4 -9 3 -5 -4z"/>
<path d="M6436 5662 c-3 -5 1 -9 9 -9 8 0 12 4 9 9 -3 4 -7 8 -9 8 -2 0 -6 -4
-9 -8z"/>
<path d="M6214 5622 c4 -3 14 -7 22 -8 9 -1 13 0 10 4 -4 3 -14 7 -22 8 -9 1
-13 0 -10 -4z"/>
<path d="M6425 5620 c-3 -6 1 -7 9 -4 18 7 21 14 7 14 -6 0 -13 -4 -16 -10z"/>
<path d="M6148 5603 c7 -3 16 -2 19 1 4 3 -2 6 -13 5 -11 0 -14 -3 -6 -6z"/>
<path d="M6154 5583 c3 -4 1 -11 -4 -18 -7 -8 -5 -12 5 -12 7 0 13 5 12 11 -1
6 5 10 13 8 8 -2 11 0 7 4 -4 4 -15 9 -23 10 -9 1 -13 0 -10 -3z"/>
<path d="M6100 5560 c8 -5 20 -10 25 -10 6 0 3 5 -5 10 -8 5 -19 10 -25 10 -5
0 -3 -5 5 -10z"/>
<path d="M5855 5796 c-11 -8 -15 -18 -11 -27 4 -8 1 -6 -7 4 -10 12 -17 14
-22 8 -3 -6 -1 -11 4 -11 6 0 10 -3 10 -7 -3 -19 2 -33 11 -33 6 0 9 3 9 8 -1
4 0 10 1 15 1 4 3 13 4 20 0 6 7 12 14 12 6 0 12 4 13 8 1 16 -7 17 -26 3z"/>
<path d="M9110 5786 c0 -8 5 -18 10 -21 6 -3 10 3 10 14 0 12 -4 21 -10 21 -5
0 -10 -6 -10 -14z"/>
<path d="M9066 5782 c-2 -4 -1 -14 4 -22 7 -11 9 -9 7 8 -1 24 -3 26 -11 14z"/>
<path d="M8984 5749 c-10 -17 13 -36 27 -22 12 12 4 33 -11 33 -5 0 -12 -5
-16 -11z m26 -3 c0 -3 -4 -8 -10 -11 -5 -3 -10 -1 -10 4 0 6 5 11 10 11 6 0
10 -2 10 -4z"/>
<path d="M9035 5740 c-3 -5 -1 -10 4 -10 6 0 11 5 11 10 0 6 -2 10 -4 10 -3 0
-8 -4 -11 -10z"/>
<path d="M8955 5730 c-4 -6 -11 -8 -16 -5 -5 4 -9 1 -9 -5 0 -6 -4 -9 -9 -6
-12 8 -3 -56 10 -69 9 -7 10 -4 7 11 -3 13 1 25 11 31 9 6 17 20 18 32 2 23
-2 27 -12 11z m-24 -43 c-10 -9 -11 -8 -5 6 3 10 9 15 12 12 3 -3 0 -11 -7
-18z"/>
<path d="M8885 5710 c-4 -6 -10 -8 -15 -5 -4 3 -13 -2 -20 -10 -6 -7 -17 -12
-24 -9 -12 5 -13 -4 -7 -51 2 -16 36 24 36 43 0 9 5 17 12 17 7 0 18 6 25 13
6 6 9 12 6 12 -4 0 -10 -5 -13 -10z m-35 -44 c0 -3 -4 -8 -10 -11 -5 -3 -10
-1 -10 4 0 6 5 11 10 11 6 0 10 -2 10 -4z"/>
<path d="M8787 5659 c7 -9 10 -19 6 -22 -3 -4 -1 -7 5 -7 17 0 15 16 -5 31
-16 12 -17 12 -6 -2z"/>
<path d="M8709 5633 c-1 -1 -2 -6 -3 -10 -1 -5 -4 -12 -8 -18 -3 -5 0 -16 8
-22 7 -7 15 -9 19 -4 3 5 -1 12 -7 15 -7 2 -2 4 12 3 16 -1 25 3 25 13 0 8 4
18 8 21 4 3 -6 6 -23 6 -16 0 -31 -2 -31 -4z m31 -13 c8 -5 11 -10 5 -10 -5 0
-17 5 -25 10 -8 5 -10 10 -5 10 6 0 17 -5 25 -10z"/>
<path d="M8641 5591 c-8 -5 -9 -11 -3 -15 5 -3 12 1 16 9 6 17 6 18 -13 6z"/>
<path d="M6070 5660 c0 -5 5 -10 10 -10 6 0 10 5 10 10 0 6 -4 10 -10 10 -5 0
-10 -4 -10 -10z"/>
<path d="M6028 5603 c7 -3 16 -2 19 1 4 3 -2 6 -13 5 -11 0 -14 -3 -6 -6z"/>
<path d="M8587 5555 c-15 -10 -15 -14 -3 -24 10 -8 16 -9 21 -1 3 5 0 10 -7
10 -10 0 -9 3 2 10 8 5 12 11 10 14 -3 2 -13 -1 -23 -9z"/>
<path d="M1544 5751 c-3 -3 -9 -6 -12 -6 -20 -2 -52 -18 -52 -26 0 -5 -6 -9
-13 -9 -22 0 -56 -82 -52 -126 5 -60 9 -70 36 -103 23 -28 99 -70 99 -55 0 4
6 2 13 -3 13 -11 119 16 118 30 -1 4 1 7 4 7 11 0 43 39 51 62 10 34 13 118 3
118 -5 0 -9 7 -9 16 0 15 -23 44 -34 44 -11 0 -6 -28 4 -32 6 -2 12 -13 13
-26 0 -12 5 -22 9 -22 11 0 6 -60 -5 -67 -4 -2 -2 -12 5 -21 10 -12 10 -14 1
-8 -8 4 -13 1 -13 -8 0 -11 -7 -15 -22 -12 -13 2 -22 9 -20 16 4 19 -18 39
-36 34 -15 -5 -14 -4 1 6 9 6 15 15 13 19 -3 4 1 8 9 8 9 0 11 -5 6 -11 -4 -7
0 -18 11 -28 10 -10 18 -14 18 -9 0 6 -5 13 -11 16 -6 4 -8 13 -5 20 2 7 -2
21 -10 32 -9 10 -12 12 -9 5 6 -11 3 -12 -14 -2 -12 6 -25 18 -28 26 -3 7 -10
11 -16 7 -6 -4 -7 -1 -1 8 37 60 -46 93 -106 42 -10 -9 -16 -21 -13 -26 3 -6
1 -7 -5 -3 -11 6 -16 -6 -13 -26 0 -5 -3 -8 -8 -8 -4 0 -7 -10 -6 -22 1 -13 3
-31 4 -40 0 -10 7 -18 15 -18 21 0 31 -21 15 -31 -10 -6 -7 -8 9 -6 17 1 21 6
16 22 -4 16 -3 17 5 5 10 -13 12 -13 21 0 5 8 10 10 10 5 0 -6 -7 -20 -15 -32
-13 -19 -13 -22 1 -27 9 -3 21 -3 27 1 7 4 18 8 27 9 8 1 23 5 33 9 12 5 16 3
14 -6 -2 -8 -2 -11 0 -6 3 4 10 4 16 0 8 -5 8 -2 0 9 -7 8 -9 19 -5 23 4 5 1
5 -7 0 -9 -5 -12 -4 -7 3 4 7 14 12 22 12 8 0 12 -5 9 -10 -9 -14 14 -42 27
-33 6 3 8 0 6 -8 -3 -8 -12 -13 -21 -13 -9 1 -15 -3 -14 -9 3 -14 -51 -28 -93
-24 -94 8 -153 116 -115 209 17 42 91 88 133 82 6 -1 24 -2 38 -3 16 -1 23 -5
18 -13 -5 -8 -2 -9 10 -5 10 4 19 1 22 -8 6 -15 24 -11 24 5 0 22 -128 58
-146 41z m86 -167 c0 -8 -4 -14 -8 -14 -4 0 -8 9 -8 19 0 11 4 17 8 15 4 -3 8
-12 8 -20z m-65 -23 c3 -5 2 -12 -3 -15 -5 -3 -9 1 -9 9 0 17 3 19 12 6z m42
-31 c-1 -10 -3 -17 -6 -15 -2 3 -10 0 -18 -6 -7 -6 -13 -8 -13 -4 0 4 -7 2
-15 -5 -9 -7 -18 -10 -22 -7 -8 9 17 38 27 32 5 -3 11 -1 15 5 4 6 11 7 17 4
8 -5 9 -1 5 10 -4 9 -3 15 2 11 6 -3 9 -14 8 -25z"/>
<path d="M1630 5690 c0 -5 5 -10 11 -10 5 0 7 5 4 10 -3 6 -8 10 -11 10 -2 0
-4 -4 -4 -10z"/>
<path d="M1615 5661 c6 -31 26 -51 32 -33 4 10 9 9 24 -4 10 -9 19 -12 19 -7
0 6 -7 14 -16 17 -12 5 -14 10 -5 19 8 10 7 14 -4 14 -8 0 -12 -4 -9 -9 10
-16 -19 -8 -32 10 -12 15 -13 15 -9 -7z"/>
<path d="M1695 5600 c-3 -5 -1 -10 4 -10 6 0 11 5 11 10 0 6 -2 10 -4 10 -3 0
-8 -4 -11 -10z"/>
<path d="M1592 5481 c-11 -7 -11 -9 0 -14 9 -3 15 1 15 9 0 8 -1 14 -1 14 -1
0 -7 -4 -14 -9z"/>
<path d="M820 5258 c0 -5 6 -8 13 -6 32 6 97 -35 97 -62 0 -5 5 -10 10 -10 12
0 -5 37 -24 55 -29 27 -96 43 -96 23z"/>
<path d="M770 5234 c-27 -27 -17 -34 12 -7 15 13 21 14 31 4 6 -7 8 -12 2 -11
-25 5 -35 -2 -35 -25 0 -15 -6 -25 -15 -25 -9 0 -12 6 -8 18 5 14 3 15 -7 5
-21 -19 27 -58 73 -60 20 0 34 3 32 8 -3 4 7 6 22 3 22 -4 25 -2 16 7 -6 6 -9
18 -6 27 4 8 2 13 -3 9 -6 -3 -10 3 -11 13 -2 27 -24 48 -45 42 -10 -2 -18 1
-18 7 0 17 -12 12 -40 -15z"/>
<path d="M883 5215 c0 -8 4 -12 9 -9 5 3 6 10 3 15 -9 13 -12 11 -12 -6z"/>
<path d="M923 5163 c-21 -8 -15 -22 7 -16 11 3 20 9 20 14 0 10 -8 10 -27 2z"/>
<path d="M749 5132 c35 -65 121 -83 166 -35 28 31 32 45 10 37 -8 -4 -15 -12
-15 -20 0 -7 -9 -18 -19 -24 -27 -14 -31 -13 -25 8 5 16 5 16 -5 0 -13 -19
-50 -16 -63 4 -4 7 -8 9 -8 5 0 -4 -6 -2 -14 5 -8 7 -13 17 -13 22 1 5 -4 11
-11 13 -11 4 -12 1 -3 -15z"/>
<path d="M867 5133 c-4 -6 0 -13 8 -17 8 -3 17 0 21 6 4 6 3 8 -4 4 -5 -3 -12
-1 -14 6 -3 8 -6 9 -11 1z"/>
<path d="M806 5117 c3 -10 9 -15 12 -12 3 3 0 11 -7 18 -10 9 -11 8 -5 -6z"/>
<path d="M830 5121 c0 -5 5 -13 10 -16 6 -3 10 -2 10 4 0 5 -4 13 -10 16 -5 3
-10 2 -10 -4z"/>
<path d="M418 5115 c-2 -2 -15 -5 -30 -7 -38 -5 -114 -57 -128 -87 -6 -14 -11
-28 -10 -30 1 -2 -3 -7 -10 -11 -6 -4 -13 -20 -15 -36 -2 -16 -4 -31 -5 -34
-2 -3 -1 -9 0 -15 3 -15 7 -47 9 -73 0 -13 5 -21 10 -17 9 5 27 -32 23 -47 -1
-5 2 -8 6 -8 5 0 17 -8 28 -18 29 -27 94 -54 115 -49 11 3 19 0 19 -6 0 -7 5
-5 10 3 7 11 10 11 10 2 0 -9 5 -10 18 -4 9 5 23 7 30 5 6 -3 12 2 12 11 0 15
-14 21 -35 16 -30 -8 -84 -4 -110 9 -16 8 -33 14 -37 13 -8 -2 -12 14 -9 32 1
5 -4 4 -12 -3 -14 -11 -22 -1 -25 33 0 5 -5 12 -11 16 -18 11 -34 100 -18 100
5 0 4 7 -3 15 -9 11 -9 15 -1 15 7 0 10 4 6 9 -3 5 1 16 9 24 8 8 12 17 9 21
-4 3 -1 6 6 6 7 0 9 5 6 10 -3 6 -1 10 5 10 6 0 8 5 4 12 -4 6 -3 8 3 5 6 -4
14 0 17 9 3 8 10 13 15 9 6 -3 14 1 18 9 5 9 26 18 48 22 22 3 43 8 48 11 4 2
7 -4 8 -14 0 -10 3 -13 6 -5 2 6 9 12 14 12 6 0 7 -6 3 -12 -5 -9 -2 -9 9 1
11 8 17 9 17 3 0 -6 7 -9 15 -6 13 5 19 -5 17 -27 -1 -4 8 -5 18 -2 16 4 23
-3 35 -30 8 -20 22 -40 31 -45 12 -7 13 -11 5 -17 -8 -4 -9 -11 -3 -18 15 -19
21 -67 8 -67 -6 0 -4 -5 4 -10 8 -5 10 -10 4 -10 -7 0 -15 -11 -18 -25 -4 -14
-14 -34 -23 -45 -16 -19 -18 -19 -37 -2 -21 17 -21 17 -3 -4 19 -23 23 -39 7
-29 -6 3 -13 0 -16 -9 -3 -8 -14 -13 -24 -11 -17 3 -18 1 -8 -15 11 -17 38
-17 38 1 0 5 5 9 10 9 15 0 70 58 70 73 0 7 4 17 9 23 5 5 11 20 13 34 1 14 8
28 13 32 6 5 6 8 -2 8 -6 0 -10 13 -9 31 1 16 -1 32 -6 35 -5 3 -6 10 -3 15 4
5 2 9 -2 9 -5 0 -14 14 -20 31 -7 18 -17 28 -23 24 -6 -3 -9 -1 -8 6 3 12 -65
65 -86 67 -6 0 -28 3 -48 5 -20 3 -38 3 -40 2z"/>
<path d="M410 5070 c0 -6 -11 -8 -25 -6 -14 3 -23 1 -20 -5 4 -5 1 -9 -6 -9
-17 0 -59 -49 -76 -88 -18 -42 -15 -122 4 -115 7 3 13 0 13 -6 0 -6 9 -11 19
-11 10 0 21 -6 23 -12 8 -20 -2 -39 -15 -31 -7 3 -8 2 -4 -2 13 -15 36 -14 30
1 -3 8 0 14 6 14 6 0 11 -5 11 -11 0 -5 5 -7 10 -4 6 3 10 -1 10 -9 0 -9 5
-16 10 -16 7 0 7 6 0 20 -6 11 -16 20 -23 20 -8 0 -8 3 1 9 11 7 10 9 -3 14
-9 4 -13 3 -10 -3 3 -6 1 -10 -4 -10 -6 0 -11 7 -11 16 0 11 5 14 18 9 9 -4
22 -8 27 -9 6 -2 19 -7 29 -11 13 -6 23 -3 32 10 8 10 14 15 14 9 -1 -12 -26
-45 -36 -46 -4 0 -11 7 -16 16 -5 9 -13 14 -18 11 -5 -3 -1 -14 9 -24 10 -10
21 -25 24 -32 4 -10 9 -8 22 9 9 12 21 22 27 22 7 0 7 -5 -1 -14 -9 -10 -8
-15 3 -19 11 -4 13 -1 9 10 -5 12 -3 14 8 8 11 -7 12 -6 2 7 -7 8 -9 18 -5 23
4 4 -4 2 -18 -4 -22 -11 -23 -10 -7 2 9 8 17 19 17 24 0 6 7 16 15 23 12 10
13 16 3 29 -12 14 -11 14 5 2 9 -7 17 -9 17 -3 0 5 -10 17 -22 25 l-23 16 23
-6 c13 -3 22 -1 22 6 0 7 -4 9 -10 6 -6 -3 -7 1 -3 10 5 13 7 14 14 3 7 -11 9
-10 9 1 0 25 12 3 16 -29 3 -21 -1 -33 -12 -37 -13 -5 -13 -7 -2 -14 23 -15
26 -10 25 39 -2 53 -8 61 -46 57 -30 -3 -45 13 -29 32 8 10 6 13 -6 13 -9 0
-15 3 -15 8 4 24 -4 40 -31 55 -17 11 -30 14 -30 7z m80 -210 c0 -5 -4 -10
-10 -10 -5 0 -10 5 -10 10 0 6 5 10 10 10 6 0 10 -4 10 -10z m-49 -28 c-7 -2
-18 1 -23 6 -8 8 -4 9 13 5 13 -4 18 -8 10 -11z m13 -54 c-3 -4 -9 -8 -15 -8
-5 0 -9 4 -9 8 0 5 7 9 15 9 8 0 12 -4 9 -9z"/>
<path d="M485 5020 c3 -5 8 -10 11 -10 2 0 4 5 4 10 0 6 -5 10 -11 10 -5 0 -7
-4 -4 -10z"/>
<path d="M559 5023 c-5 -29 -5 -53 -1 -48 7 6 12 55 6 55 -2 0 -5 -3 -5 -7z"/>
<path d="M511 5010 c2 -31 -1 -41 -13 -34 -6 4 -8 3 -5 -4 11 -16 46 -2 44 18
-1 10 -4 17 -8 14 -4 -2 -10 2 -13 8 -4 9 -5 8 -5 -2z"/>
<path d="M575 4971 c-3 -5 -2 -12 3 -15 5 -3 9 1 9 9 0 17 -3 19 -12 6z"/>
<path d="M536 4913 c-4 -9 -3 -20 2 -25 6 -6 10 1 10 16 0 30 -3 32 -12 9z"/>
<path d="M510 4840 c-8 -14 -8 -26 0 -40 12 -23 25 -27 16 -5 -3 8 4 21 15 29
l21 14 -21 11 c-17 9 -22 8 -31 -9z m24 1 c3 -5 -2 -15 -12 -22 -15 -12 -16
-12 -5 2 7 9 10 19 6 22 -3 4 -4 7 0 7 3 0 8 -4 11 -9z"/>
<path d="M575 4840 c-3 -6 1 -7 10 -4 11 5 14 2 9 -12 -5 -15 -4 -16 4 -4 11
15 7 30 -8 30 -5 0 -12 -4 -15 -10z"/>
<path d="M296 4812 c-2 -4 4 -8 14 -8 10 0 16 4 14 8 -3 4 -9 8 -14 8 -5 0
-11 -4 -14 -8z"/>
<path d="M552 4811 c-11 -7 -11 -9 0 -14 9 -3 15 1 15 9 0 8 -1 14 -1 14 -1 0
-7 -4 -14 -9z"/>
<path d="M515 4760 c-3 -5 -1 -10 4 -10 6 0 11 5 11 10 0 6 -2 10 -4 10 -3 0
-8 -4 -11 -10z"/>
<path d="M370 4739 c0 -5 5 -7 10 -4 6 3 10 8 10 11 0 2 -4 4 -10 4 -5 0 -10
-5 -10 -11z"/>
<path d="M399 4733 c-12 -16 -12 -17 2 -6 9 7 20 9 24 5 5 -4 5 -1 1 6 -9 16
-11 15 -27 -5z"/>
<path d="M2210 4311 c0 -6 17 -11 39 -11 40 0 89 -33 108 -75 12 -25 10 -72
-4 -106 -14 -31 -73 -78 -73 -57 0 9 -3 9 -8 2 -4 -6 -16 -11 -27 -12 -30 -1
-95 29 -95 45 0 7 -5 13 -11 13 -6 0 -8 7 -5 16 3 8 2 12 -4 9 -6 -3 -10 -3
-11 2 -5 44 -5 65 3 69 4 3 6 10 3 15 -4 5 1 9 10 9 12 0 14 -4 5 -19 -23 -44
-9 -72 43 -85 22 -5 27 -4 21 6 -6 11 -5 11 8 0 17 -13 18 -28 5 -49 -5 -8 -4
-13 2 -13 6 0 11 4 11 9 0 5 11 8 25 7 13 -2 22 1 19 5 -8 13 10 11 26 -3 12
-11 12 -10 2 3 -10 13 -9 19 5 30 15 12 16 12 10 -4 -4 -11 -3 -16 3 -12 12 8
8 40 -5 40 -6 0 -9 -4 -7 -8 1 -4 -7 -3 -18 3 -22 12 -27 22 -7 14 8 -3 14 2
15 11 1 8 3 22 4 30 1 8 5 12 9 10 4 -3 6 3 5 12 -4 22 -19 20 -22 -3 -2 -9
-8 -22 -15 -28 -9 -8 -10 -8 -5 1 4 7 2 22 -4 33 -8 15 -8 18 3 14 8 -3 17 2
21 11 3 10 2 14 -5 10 -12 -8 -41 14 -34 26 3 4 -5 6 -17 5 -40 -6 -66 -18
-72 -32 -3 -8 -13 -14 -22 -14 -13 0 -11 5 9 24 14 13 32 26 39 29 7 2 10 8 5
12 -11 13 -60 -27 -79 -66 -37 -71 -11 -147 63 -187 87 -46 184 5 204 108 9
47 -26 114 -72 139 -33 17 -103 25 -103 12z m44 -188 c5 -12 9 -13 21 -3 9 7
18 10 21 7 3 -3 -4 -10 -15 -17 -12 -6 -21 -7 -21 -3 0 4 -4 2 -9 -6 -6 -9
-11 -10 -15 -2 -4 6 -2 11 5 11 7 0 5 8 -6 20 -16 17 -16 20 -3 15 9 -4 19
-13 22 -22z"/>
<path d="M1615 4240 c-4 -6 -13 -9 -21 -8 -35 7 -113 -79 -109 -122 0 -8 -3
-17 -6 -20 -11 -7 26 -111 42 -121 8 -5 10 -9 4 -9 -5 0 13 -12 40 -26 52 -26
102 -28 155 -6 23 9 88 72 74 72 -4 0 -1 6 5 13 14 18 16 95 3 128 -17 43 -68
86 -116 98 -55 14 -63 14 -71 1z m58 -19 c5 0 5 -7 1 -13 -5 -10 -4 -10 6 -1
7 6 20 9 29 5 23 -9 59 -44 63 -62 2 -8 7 -18 11 -21 12 -8 16 -79 5 -79 -5 0
-7 -4 -3 -9 3 -5 1 -12 -5 -16 -6 -4 -8 -11 -5 -16 4 -5 0 -12 -8 -15 -8 -3
-17 -14 -20 -25 -3 -11 -9 -18 -14 -17 -4 1 -17 -2 -28 -8 -51 -26 -162 0
-159 38 1 11 -4 14 -14 10 -11 -4 -14 -1 -9 11 3 9 3 16 -1 14 -4 -1 -7 0 -8
3 0 3 -6 15 -12 27 -8 14 -9 24 -2 28 5 3 10 -3 10 -14 0 -12 6 -22 13 -22 46
-5 55 -7 65 -13 6 -3 15 2 21 11 6 10 11 13 11 6 0 -6 -5 -15 -11 -18 -7 -5
-5 -15 6 -31 9 -14 13 -30 10 -37 -3 -7 2 -2 11 11 16 22 18 22 38 5 12 -10
18 -14 14 -9 -4 5 -3 17 3 28 8 15 14 17 24 8 9 -8 15 -8 20 0 4 6 3 10 -2 9
-23 -4 -25 3 -5 17 22 15 31 54 12 54 -5 0 -7 -6 -5 -12 3 -7 1 -19 -4 -27 -8
-12 -12 -12 -25 -2 -18 15 -21 31 -5 31 5 0 8 -4 4 -9 -3 -5 -1 -12 4 -15 5
-3 12 1 15 9 4 10 -6 23 -27 36 -27 17 -28 19 -7 13 22 -6 23 -5 11 10 -7 9
-10 16 -7 16 4 0 4 5 1 11 -5 6 -12 4 -22 -8 -14 -17 -14 -17 -5 1 11 21 5 56
-10 56 -5 0 -7 4 -4 9 11 17 -33 19 -66 2 -36 -18 -81 -78 -74 -98 3 -7 1 -13
-4 -13 -5 0 -8 13 -7 29 1 16 5 27 10 24 4 -2 7 0 7 6 0 18 44 58 75 68 26 9
44 10 78 4z m26 -207 c-6 -8 -16 -11 -22 -7 -7 4 -8 0 -3 -12 5 -15 4 -16 -8
-6 -10 8 -16 9 -21 1 -3 -6 -10 -8 -15 -5 -9 6 -5 44 6 54 4 3 4 -2 1 -11 -3
-10 -2 -20 3 -23 6 -4 10 -2 10 4 0 5 9 8 20 6 11 -2 20 0 20 6 0 8 -15 13
-33 10 -5 -1 -6 3 -2 8 4 7 14 6 30 -1 19 -9 22 -14 14 -24z"/>
<path d="M1697 4173 c5 -12 3 -14 -8 -8 -8 5 -5 -1 5 -13 11 -12 16 -22 11
-22 -4 0 -3 -6 3 -12 6 -7 11 -16 11 -20 1 -11 16 -10 16 1 0 5 3 13 8 17 4 4
7 12 7 18 0 6 -5 4 -10 -4 -5 -8 -10 -12 -11 -7 -1 4 -3 10 -4 15 -2 4 -6 17
-10 30 -4 12 -11 22 -16 22 -5 0 -5 -7 -2 -17z"/>
<path d="M1735 4160 c3 -5 8 -10 11 -10 2 0 4 5 4 10 0 6 -5 10 -11 10 -5 0
-7 -4 -4 -10z"/>
<path d="M1755 4109 c-4 -6 -5 -12 -2 -15 2 -3 7 2 10 11 7 17 1 20 -8 4z"/>
<path d="M1586 4006 c5 -13 4 -17 -4 -12 -8 5 -10 2 -5 -10 6 -15 7 -15 16 1
6 11 5 21 -3 28 -8 9 -9 7 -4 -7z"/>
<path d="M1650 3960 c0 -5 5 -10 11 -10 5 0 7 5 4 10 -3 6 -8 10 -11 10 -2 0
-4 -4 -4 -10z"/>
<path d="M2331 4214 c0 -11 3 -14 6 -6 3 7 2 16 -1 19 -3 4 -6 -2 -5 -13z"/>
<path d="M2307 4177 c-3 -7 3 -13 13 -13 10 0 16 6 13 13 -3 7 -9 13 -13 13
-4 0 -10 -6 -13 -13z"/>
<path d="M2175 4109 c-4 -6 -5 -12 -2 -15 2 -3 7 2 10 11 7 17 1 20 -8 4z"/>
<path d="M2200 4100 c-6 -11 -8 -20 -6 -20 3 0 10 9 16 20 6 11 8 20 6 20 -3
0 -10 -9 -16 -20z"/>
<path d="M2023 3734 c-87 -36 -97 -156 -17 -209 32 -21 104 -16 129 9 9 9 22
16 28 16 8 0 8 3 0 11 -8 8 -17 5 -32 -10 -12 -12 -26 -19 -31 -16 -5 3 -11 1
-15 -5 -8 -13 -25 -3 -25 15 0 9 8 12 20 10 11 -2 18 0 15 4 -2 5 3 15 12 22
14 12 15 11 9 -11 l-7 -25 15 25 c16 26 22 54 8 35 -8 -12 -32 -18 -32 -9 0 4
8 13 17 20 14 9 21 10 33 1 12 -10 13 -10 3 3 -11 15 -13 20 -13 41 0 5 -4 8
-9 4 -6 -3 -14 3 -20 12 -6 10 -11 13 -11 7 0 -6 3 -14 7 -18 10 -10 11 -46 1
-40 -5 4 -7 11 -5 18 5 13 -24 68 -40 73 -6 2 -19 -4 -29 -14 -9 -10 -20 -17
-22 -15 -3 2 -13 -9 -23 -24 -14 -21 -15 -30 -6 -36 8 -5 7 -8 -5 -8 -25 0
-18 38 13 71 34 37 74 47 99 24 10 -9 23 -14 29 -10 6 3 20 -9 31 -27 21 -35
27 -88 9 -88 -5 0 -7 -5 -3 -11 14 -23 29 19 25 73 -1 10 -17 34 -37 54 -28
28 -39 33 -45 22 -5 -8 -9 -8 -9 -2 0 18 -32 22 -67 8z m117 -88 c0 -3 -4 -8
-10 -11 -5 -3 -10 -1 -10 4 0 6 5 11 10 11 6 0 10 -2 10 -4z m-150 -46 c0 -5
6 -10 13 -10 8 0 18 -10 24 -22 6 -15 12 -18 17 -10 4 7 2 12 -3 12 -20 0 -11
16 9 17 11 1 20 -3 20 -9 0 -6 7 -5 18 3 15 13 16 12 4 -3 -8 -10 -19 -16 -25
-15 -7 1 -12 -7 -11 -19 0 -29 -20 -26 -58 8 -17 15 -28 28 -24 28 5 0 3 7 -4
15 -10 12 -10 15 4 15 9 0 16 -4 16 -10z"/>
</g>
</svg>
